<mxfile host="Electron" modified="2024-04-26T12:46:23.550Z" agent="Mozilla/5.0 (Windows NT 10.0; Win64; x64) AppleWebKit/537.36 (KHTML, like Gecko) draw.io/24.2.5 Chrome/120.0.6099.109 Electron/28.1.0 Safari/537.36" etag="zZe4F5L2u2DENNDhNfKq" version="24.2.5" type="device">
  <diagram name="Page-1" id="VgaPBqWOLMnCrATUB86u">
    <mxGraphModel dx="464" dy="1013" grid="1" gridSize="10" guides="1" tooltips="1" connect="1" arrows="1" fold="1" page="1" pageScale="1" pageWidth="827" pageHeight="1169" math="0" shadow="0">
      <root>
        <mxCell id="0" />
        <mxCell id="1" parent="0" />
        <mxCell id="g77-VThHEsQLAMUOjvLF-48" value="" style="rounded=1;whiteSpace=wrap;html=1;strokeWidth=2;fillWeight=4;hachureGap=8;hachureAngle=45;sketch=1;labelBackgroundColor=none;fillStyle=auto;shadow=0;glass=0;container=0;fillColor=#E6E6E6;strokeColor=default;" vertex="1" parent="1">
          <mxGeometry x="120" y="340" width="80" height="100" as="geometry" />
        </mxCell>
        <mxCell id="g77-VThHEsQLAMUOjvLF-44" value="" style="rounded=1;whiteSpace=wrap;html=1;strokeWidth=2;fillWeight=4;hachureGap=8;hachureAngle=45;sketch=1;labelBackgroundColor=none;fillStyle=auto;shadow=0;glass=0;container=0;fillColor=#E6E6E6;strokeColor=default;" vertex="1" parent="1">
          <mxGeometry x="320" y="340" width="160" height="100" as="geometry" />
        </mxCell>
        <mxCell id="g77-VThHEsQLAMUOjvLF-8" value="" style="endArrow=none;html=1;rounded=0;startArrow=none;startFill=0;endFill=0;textShadow=1;sketch=1;curveFitting=1;jiggle=2;jumpSize=10;" edge="1" parent="1">
          <mxGeometry width="50" height="50" relative="1" as="geometry">
            <mxPoint x="160" y="800" as="sourcePoint" />
            <mxPoint x="160" y="440" as="targetPoint" />
          </mxGeometry>
        </mxCell>
        <mxCell id="g77-VThHEsQLAMUOjvLF-9" value="" style="endArrow=none;html=1;rounded=0;startArrow=none;startFill=0;endFill=0;textShadow=1;sketch=1;curveFitting=1;jiggle=2;endSize=10;startSize=10;strokeWidth=1;entryX=0.5;entryY=1;entryDx=0;entryDy=0;" edge="1" parent="1" target="g77-VThHEsQLAMUOjvLF-44">
          <mxGeometry width="50" height="50" relative="1" as="geometry">
            <mxPoint x="400" y="800" as="sourcePoint" />
            <mxPoint x="400" y="460" as="targetPoint" />
          </mxGeometry>
        </mxCell>
        <mxCell id="g77-VThHEsQLAMUOjvLF-10" value="" style="endArrow=classic;rounded=0;textShadow=1;html=1;fontFamily=Courier New;flowAnimation=1;sketch=1;curveFitting=1;jiggle=2;shadow=1;" edge="1" parent="1">
          <mxGeometry width="50" height="50" relative="1" as="geometry">
            <mxPoint x="170" y="480" as="sourcePoint" />
            <mxPoint x="390" y="480" as="targetPoint" />
          </mxGeometry>
        </mxCell>
        <mxCell id="g77-VThHEsQLAMUOjvLF-12" value="&lt;font face=&quot;Courier New&quot;&gt;Requests the website&lt;/font&gt;&lt;div&gt;&lt;font face=&quot;Courier New&quot;&gt;from the server&lt;/font&gt;&lt;/div&gt;" style="edgeLabel;html=1;align=center;verticalAlign=middle;resizable=0;points=[];labelBorderColor=none;textShadow=1;" vertex="1" connectable="0" parent="g77-VThHEsQLAMUOjvLF-10">
          <mxGeometry x="0.1571" y="-3" relative="1" as="geometry">
            <mxPoint x="-17" y="-23" as="offset" />
          </mxGeometry>
        </mxCell>
        <mxCell id="g77-VThHEsQLAMUOjvLF-11" value="" style="endArrow=classic;html=1;rounded=0;dashed=1;textShadow=1;sketch=1;curveFitting=1;jiggle=2;flowAnimation=1;shadow=1;" edge="1" parent="1">
          <mxGeometry width="50" height="50" relative="1" as="geometry">
            <mxPoint x="390" y="520" as="sourcePoint" />
            <mxPoint x="170" y="520" as="targetPoint" />
          </mxGeometry>
        </mxCell>
        <mxCell id="g77-VThHEsQLAMUOjvLF-13" value="&lt;font face=&quot;Courier New&quot;&gt;Responds with the&lt;/font&gt;&lt;div&gt;&lt;font face=&quot;Courier New&quot;&gt;main static content&lt;/font&gt;&lt;/div&gt;" style="edgeLabel;html=1;align=center;verticalAlign=middle;resizable=0;points=[];labelBorderColor=none;textShadow=1;" vertex="1" connectable="0" parent="1">
          <mxGeometry x="280" y="500" as="geometry" />
        </mxCell>
        <mxCell id="g77-VThHEsQLAMUOjvLF-14" value="" style="endArrow=classic;html=1;rounded=0;textShadow=1;sketch=1;curveFitting=1;jiggle=2;flowAnimation=1;shadow=1;" edge="1" parent="1">
          <mxGeometry width="50" height="50" relative="1" as="geometry">
            <mxPoint x="170" y="680" as="sourcePoint" />
            <mxPoint x="390" y="680" as="targetPoint" />
          </mxGeometry>
        </mxCell>
        <mxCell id="g77-VThHEsQLAMUOjvLF-15" value="&lt;font face=&quot;Courier New&quot;&gt;Requests profile&lt;/font&gt;&lt;div&gt;&lt;font face=&quot;Courier New&quot;&gt;and content data&lt;/font&gt;&lt;/div&gt;" style="edgeLabel;html=1;align=center;verticalAlign=middle;resizable=0;points=[];labelBorderColor=none;textShadow=1;" vertex="1" connectable="0" parent="g77-VThHEsQLAMUOjvLF-14">
          <mxGeometry x="0.1571" y="-3" relative="1" as="geometry">
            <mxPoint x="-17" y="-23" as="offset" />
          </mxGeometry>
        </mxCell>
        <mxCell id="g77-VThHEsQLAMUOjvLF-16" value="" style="endArrow=classic;html=1;rounded=0;dashed=1;textShadow=1;sketch=1;curveFitting=1;jiggle=2;flowAnimation=1;shadow=1;" edge="1" parent="1">
          <mxGeometry width="50" height="50" relative="1" as="geometry">
            <mxPoint x="390" y="720" as="sourcePoint" />
            <mxPoint x="170" y="720" as="targetPoint" />
          </mxGeometry>
        </mxCell>
        <mxCell id="g77-VThHEsQLAMUOjvLF-22" value="&lt;font face=&quot;Courier New&quot;&gt;Reponds with profile&lt;/font&gt;&lt;div&gt;&lt;font face=&quot;Courier New&quot;&gt;and content data&lt;/font&gt;&lt;/div&gt;" style="edgeLabel;html=1;align=center;verticalAlign=middle;resizable=0;points=[];textShadow=1;labelBorderColor=none;" vertex="1" connectable="0" parent="g77-VThHEsQLAMUOjvLF-16">
          <mxGeometry x="-0.4286" y="3" relative="1" as="geometry">
            <mxPoint x="-47" y="-23" as="offset" />
          </mxGeometry>
        </mxCell>
        <mxCell id="g77-VThHEsQLAMUOjvLF-17" value="" style="endArrow=classic;html=1;rounded=0;edgeStyle=elbowEdgeStyle;textShadow=1;sketch=1;curveFitting=1;jiggle=2;flowAnimation=1;shadow=1;" edge="1" parent="1">
          <mxGeometry width="50" height="50" relative="1" as="geometry">
            <mxPoint x="410" y="620" as="sourcePoint" />
            <mxPoint x="410" y="660" as="targetPoint" />
            <Array as="points">
              <mxPoint x="440" y="610" />
            </Array>
          </mxGeometry>
        </mxCell>
        <mxCell id="g77-VThHEsQLAMUOjvLF-21" value="&lt;font face=&quot;Courier New&quot;&gt;Queries profile and&lt;br&gt;&lt;/font&gt;&lt;font face=&quot;Courier New&quot;&gt;content tables&lt;/font&gt;" style="edgeLabel;html=1;align=center;verticalAlign=middle;resizable=0;points=[];labelBorderColor=none;textShadow=1;labelBackgroundColor=default;" vertex="1" connectable="0" parent="g77-VThHEsQLAMUOjvLF-17">
          <mxGeometry x="0.32" y="-1" relative="1" as="geometry">
            <mxPoint x="51" y="-16" as="offset" />
          </mxGeometry>
        </mxCell>
        <mxCell id="g77-VThHEsQLAMUOjvLF-23" value="" style="endArrow=classic;html=1;rounded=0;textShadow=1;sketch=1;curveFitting=1;jiggle=2;flowAnimation=1;shadow=1;" edge="1" parent="1">
          <mxGeometry width="50" height="50" relative="1" as="geometry">
            <mxPoint x="170" y="560" as="sourcePoint" />
            <mxPoint x="390" y="560" as="targetPoint" />
          </mxGeometry>
        </mxCell>
        <mxCell id="g77-VThHEsQLAMUOjvLF-24" value="&lt;font face=&quot;Courier New&quot;&gt;Requests the secondary&amp;nbsp;&lt;/font&gt;&lt;div&gt;&lt;font face=&quot;Courier New&quot;&gt;static content&lt;/font&gt;&lt;/div&gt;" style="edgeLabel;html=1;align=center;verticalAlign=middle;resizable=0;points=[];labelBorderColor=none;textShadow=1;" vertex="1" connectable="0" parent="g77-VThHEsQLAMUOjvLF-23">
          <mxGeometry x="0.1571" y="-3" relative="1" as="geometry">
            <mxPoint x="-17" y="-23" as="offset" />
          </mxGeometry>
        </mxCell>
        <mxCell id="g77-VThHEsQLAMUOjvLF-25" value="" style="endArrow=classic;html=1;rounded=0;dashed=1;textShadow=1;sketch=1;curveFitting=1;jiggle=2;flowAnimation=1;shadow=1;" edge="1" parent="1">
          <mxGeometry width="50" height="50" relative="1" as="geometry">
            <mxPoint x="390" y="600" as="sourcePoint" />
            <mxPoint x="170" y="600" as="targetPoint" />
          </mxGeometry>
        </mxCell>
        <mxCell id="g77-VThHEsQLAMUOjvLF-26" value="&lt;font face=&quot;Courier New&quot;&gt;Repsonds with the&lt;/font&gt;&lt;div&gt;&lt;font face=&quot;Courier New&quot;&gt;secondary&amp;nbsp;static content&lt;/font&gt;&lt;/div&gt;" style="edgeLabel;html=1;align=center;verticalAlign=middle;resizable=0;points=[];labelBorderColor=none;textShadow=1;" vertex="1" connectable="0" parent="1">
          <mxGeometry x="280" y="580" as="geometry" />
        </mxCell>
        <mxCell id="g77-VThHEsQLAMUOjvLF-27" value="" style="endArrow=classic;html=1;rounded=0;textShadow=1;sketch=1;curveFitting=1;jiggle=2;flowAnimation=1;shadow=1;" edge="1" parent="1">
          <mxGeometry width="50" height="50" relative="1" as="geometry">
            <mxPoint x="170" y="760" as="sourcePoint" />
            <mxPoint x="390" y="760" as="targetPoint" />
          </mxGeometry>
        </mxCell>
        <mxCell id="g77-VThHEsQLAMUOjvLF-28" value="&lt;font face=&quot;Courier New&quot;&gt;Requests component specific&lt;/font&gt;&lt;div&gt;&lt;font face=&quot;Courier New&quot;&gt;static content&lt;/font&gt;&lt;/div&gt;" style="edgeLabel;html=1;align=center;verticalAlign=middle;resizable=0;points=[];labelBorderColor=none;textShadow=1;" vertex="1" connectable="0" parent="g77-VThHEsQLAMUOjvLF-27">
          <mxGeometry x="0.1571" y="-3" relative="1" as="geometry">
            <mxPoint x="-17" y="-23" as="offset" />
          </mxGeometry>
        </mxCell>
        <mxCell id="g77-VThHEsQLAMUOjvLF-29" value="" style="endArrow=classic;html=1;rounded=0;dashed=1;textShadow=1;sketch=1;curveFitting=1;jiggle=2;flowAnimation=1;shadow=1;" edge="1" parent="1">
          <mxGeometry width="50" height="50" relative="1" as="geometry">
            <mxPoint x="390" y="800" as="sourcePoint" />
            <mxPoint x="170" y="800" as="targetPoint" />
          </mxGeometry>
        </mxCell>
        <mxCell id="g77-VThHEsQLAMUOjvLF-30" value="&lt;font face=&quot;Courier New&quot;&gt;Reponds with component&lt;/font&gt;&lt;div&gt;&lt;font face=&quot;Courier New&quot;&gt;specific static content&lt;/font&gt;&lt;/div&gt;" style="edgeLabel;html=1;align=center;verticalAlign=middle;resizable=0;points=[];textShadow=1;labelBorderColor=none;" vertex="1" connectable="0" parent="g77-VThHEsQLAMUOjvLF-29">
          <mxGeometry x="-0.4286" y="3" relative="1" as="geometry">
            <mxPoint x="-47" y="-23" as="offset" />
          </mxGeometry>
        </mxCell>
        <mxCell id="g77-VThHEsQLAMUOjvLF-2" value="" style="image;html=1;image=img/lib/clip_art/computers/Server_Rack_128x128.png;container=0;" vertex="1" parent="1">
          <mxGeometry x="320" y="350" width="80" height="80" as="geometry" />
        </mxCell>
        <mxCell id="g77-VThHEsQLAMUOjvLF-3" value="" style="image;html=1;image=img/lib/clip_art/computers/Database_128x128.png;container=0;" vertex="1" parent="1">
          <mxGeometry x="400" y="350" width="80" height="80" as="geometry" />
        </mxCell>
        <mxCell id="g77-VThHEsQLAMUOjvLF-1" value="" style="image;points=[];aspect=fixed;html=1;align=center;shadow=0;dashed=0;image=img/lib/allied_telesis/computer_and_terminals/Personal_Computer.svg;" vertex="1" parent="1">
          <mxGeometry x="130.48" y="350" width="59.03" height="80" as="geometry" />
        </mxCell>
        <mxCell id="g77-VThHEsQLAMUOjvLF-49" value="&lt;font face=&quot;Courier New&quot; style=&quot;font-size: 18px;&quot;&gt;Client&lt;/font&gt;" style="text;html=1;align=center;verticalAlign=middle;whiteSpace=wrap;rounded=0;fontStyle=1" vertex="1" parent="1">
          <mxGeometry x="130.48" y="300" width="60" height="30" as="geometry" />
        </mxCell>
        <mxCell id="g77-VThHEsQLAMUOjvLF-50" value="&lt;font face=&quot;Courier New&quot; style=&quot;font-size: 18px;&quot;&gt;Express Server&lt;/font&gt;" style="text;html=1;align=center;verticalAlign=middle;whiteSpace=wrap;rounded=0;fontStyle=1" vertex="1" parent="1">
          <mxGeometry x="370" y="300" width="60" height="30" as="geometry" />
        </mxCell>
      </root>
    </mxGraphModel>
  </diagram>
</mxfile>
